<svg width="49" height="56" viewBox="0 0 49 56" fill="none" xmlns="http://www.w3.org/2000/svg">
<path d="M24.0068 55C24.0068 55 47.0068 46.57 47.0068 30V8C47.0068 8 36.7168 1 24.0068 1C11.2968 1 1.00681 8 1.00681 8V30C1.00681 46.57 24.0068 55 24.0068 55Z" stroke="white" stroke-width="2" stroke-linejoin="round"/>
<path d="M24.0068 31C24.5591 31 25.0068 30.5523 25.0068 30C25.0068 29.4477 24.5591 29 24.0068 29C23.4545 29 23.0068 29.4477 23.0068 30C23.0068 30.5523 23.4545 31 24.0068 31Z" stroke="white" stroke-width="2" stroke-linecap="round" stroke-linejoin="round"/>
<path d="M24.0068 33V31" stroke="white" stroke-width="2" stroke-linecap="round" stroke-linejoin="round"/>
<path d="M32.0068 23H16.0068C14.35 23 13.0068 24.3431 13.0068 26V36C13.0068 37.6569 14.35 39 16.0068 39H32.0068C33.6637 39 35.0068 37.6569 35.0068 36V26C35.0068 24.3431 33.6637 23 32.0068 23Z" stroke="white" stroke-width="2" stroke-linecap="round" stroke-linejoin="round"/>
<path d="M17.0068 23V18C17.0068 16.1435 17.7443 14.363 19.0571 13.0503C20.3698 11.7375 22.1503 11 24.0068 11C25.8633 11 27.6438 11.7375 28.9566 13.0503C30.2693 14.363 31.0068 16.1435 31.0068 18V23" stroke="white" stroke-width="2" stroke-linecap="round" stroke-linejoin="round"/>
</svg>
