<svg width="49" height="52" viewBox="0 0 49 52" fill="none" xmlns="http://www.w3.org/2000/svg">
<path d="M16.6735 1C15.8779 1 15.1148 1.31608 14.5522 1.87869C13.9896 2.4413 13.6735 3.20435 13.6735 4V22C13.6735 22.7956 13.9896 23.5587 14.5522 24.1213C15.1148 24.6839 15.8779 25 16.6735 25H18.6735V33L26.6735 25H44.6735C45.4692 25 46.2322 24.6839 46.7948 24.1213C47.3575 23.5587 47.6735 22.7956 47.6735 22V4C47.6735 3.20435 47.3575 2.4413 46.7948 1.87869C46.2322 1.31608 45.4692 1 44.6735 1H16.6735Z" stroke="white" stroke-width="2" stroke-linejoin="round"/>
<path d="M13.6735 5H4.67352C3.87787 5 3.11481 5.31608 2.5522 5.87869C1.98959 6.4413 1.67352 7.20435 1.67352 8V48C1.67352 48.7956 1.98959 49.5587 2.5522 50.1213C3.11481 50.6839 3.87787 51 4.67352 51H24.6735C25.4692 51 26.2322 50.6839 26.7948 50.1213C27.3575 49.5587 27.6735 48.7956 27.6735 48V25" stroke="white" stroke-width="2" stroke-linejoin="round"/>
<path d="M19.6735 9H41.6735" stroke="white" stroke-width="2" stroke-linecap="round" stroke-linejoin="round"/>
<path d="M19.6735 13H41.6735" stroke="white" stroke-width="2" stroke-linecap="round" stroke-linejoin="round"/>
<path d="M19.6735 17H33.6735" stroke="white" stroke-width="2" stroke-linecap="round" stroke-linejoin="round"/>
<path d="M1.67352 43H27.6735" stroke="white" stroke-width="2" stroke-linejoin="round"/>
<path d="M1.67352 11H13.6735" stroke="#414155" stroke-width="2" stroke-linejoin="round"/>
<path d="M12.6735 47H16.6735" stroke="#414155" stroke-width="2" stroke-linecap="round" stroke-linejoin="round"/>
</svg>
